<svg version="1.1" id="Layer_1" xmlns="http://www.w3.org/2000/svg" xmlns:xlink="http://www.w3.org/1999/xlink" x="0px" y="0px"
	 width="100%" viewBox="0 0 1224 1148" enable-background="new 0 0 1224 1148" xml:space="preserve">
<path fill="#000001" opacity="1.000000" stroke="none" 
	d="
M711.000000,1149.000000 
	C474.000000,1149.000000 237.500000,1149.000000 1.000000,1149.000000 
	C1.000000,766.333313 1.000000,383.666656 1.000000,1.000000 
	C409.000000,1.000000 817.000000,1.000000 1225.000000,1.000000 
	C1225.000000,383.666656 1225.000000,766.333313 1225.000000,1149.000000 
	C1053.833374,1149.000000 882.666687,1149.000000 711.000000,1149.000000 
M428.499695,924.832214 
	C405.838165,924.826904 383.175903,924.915894 360.515747,924.736450 
	C355.996094,924.700745 350.753754,926.546631 347.350616,921.369995 
	C346.984314,920.812744 345.472961,920.935486 344.484436,920.871765 
	C336.861450,920.380249 329.174408,922.646179 321.734985,917.509399 
	C318.905884,915.556030 313.991455,915.544434 310.126404,913.570618 
	C303.913116,910.397705 296.832123,908.872131 290.749420,905.508301 
	C283.170227,901.317017 275.815308,896.471069 269.145203,890.961487 
	C263.493439,886.293091 258.119751,881.163391 254.973312,873.951172 
	C252.026459,867.196533 247.363297,861.211365 244.034286,854.596313 
	C241.176483,848.917664 239.775284,842.449829 236.565353,837.019409 
	C232.947525,830.898804 232.885010,824.498291 232.548386,817.920288 
	C232.474472,816.475586 231.898804,815.044128 231.468414,813.632690 
	C230.598389,810.779541 228.920303,807.951965 228.891052,805.100342 
	C228.742355,790.611267 228.997025,776.117676 229.170364,761.626343 
	C229.185577,760.354858 229.497360,759.041809 229.909622,757.829102 
	C230.857712,755.040344 232.349014,752.375854 232.884567,749.522949 
	C233.509567,746.193481 233.277298,743.061462 235.696640,739.872314 
	C238.379364,736.335999 239.422134,731.538086 241.091736,727.255493 
	C242.807053,722.855591 243.641998,717.882690 246.235825,714.103333 
	C251.488922,706.449341 257.767242,699.506348 263.409821,692.107788 
	C265.113190,689.874329 265.604401,686.598633 267.523224,684.666992 
	C277.317535,674.807190 286.291199,664.092712 298.604004,656.893066 
	C303.792816,653.859009 307.498993,648.342957 312.608398,645.106323 
	C319.429718,640.785278 327.006470,637.670959 334.173248,633.876770 
	C340.100647,630.738708 345.804291,627.167053 351.797974,624.169067 
	C355.672241,622.231323 359.967010,621.152710 363.935974,619.381348 
	C369.213501,617.025879 374.280640,614.193604 379.582764,611.900452 
	C383.776672,610.086609 388.207489,608.827637 392.498993,607.230652 
	C397.934082,605.208069 403.262390,602.870972 408.769348,601.076294 
	C414.968048,599.056152 421.357697,597.627258 427.581757,595.677551 
	C431.923676,594.317444 436.256439,592.789368 440.366150,590.854004 
	C450.700623,585.987366 461.099731,581.197144 471.087036,575.678040 
	C476.572906,572.646423 483.484283,571.419128 486.823914,565.002014 
	C487.148804,564.377686 489.104706,563.989929 489.940887,564.345398 
	C494.604248,566.327881 498.219299,563.986145 502.048431,561.951782 
	C505.523285,560.105652 509.083130,558.357666 512.753601,556.953491 
	C521.944885,553.437134 531.232605,550.173584 540.458252,546.745850 
	C550.004333,543.199097 559.491821,539.492554 569.066589,536.026062 
	C573.855774,534.292175 578.829956,533.073364 583.637390,531.384949 
	C597.052856,526.673462 610.287903,521.392944 623.864807,517.216736 
	C632.209045,514.650024 641.068848,513.785095 649.648804,511.932404 
	C651.046326,511.630646 652.192810,510.166260 653.455322,509.239258 
	C652.189209,507.744110 650.815613,504.903137 649.676086,504.994080 
	C645.444397,505.331848 642.383606,502.861206 638.834595,501.885620 
	C632.501282,500.144714 625.762146,499.927277 619.448547,497.398712 
	C616.827148,496.348846 612.433838,498.046539 610.816772,496.471619 
	C605.399170,491.195099 598.947266,493.692963 592.986206,492.791443 
	C591.886597,492.625122 590.076233,492.921112 589.776184,492.365387 
	C587.019287,487.259277 582.323792,489.331665 578.271179,488.931580 
	C576.612061,488.767822 574.939636,488.307465 573.376404,487.711487 
	C571.410950,486.962219 569.557007,485.166687 567.645081,485.152557 
	C554.664551,485.056793 541.679688,485.231293 528.700256,485.508575 
	C525.381714,485.579437 522.018616,486.717316 520.703491,482.060455 
	C520.519165,481.407898 518.430603,480.974823 517.224060,480.975952 
	C489.063629,481.001984 460.903229,481.093994 432.743011,481.218048 
	C431.643188,481.222900 429.787048,481.371796 429.564301,481.948456 
	C427.453796,487.411499 423.094238,485.023468 419.414520,485.137482 
	C414.814819,485.280029 408.906372,483.895599 405.951141,486.214294 
	C402.157990,489.190399 399.009674,488.754547 395.156525,488.833801 
	C390.594116,488.927643 385.824341,488.968140 381.553558,490.322174 
	C377.477936,491.614319 374.026001,494.765869 370.096069,496.681885 
	C368.645081,497.389282 366.592621,496.757965 364.850006,496.996674 
	C362.184784,497.361816 358.666992,497.073212 357.102875,498.645538 
	C354.539429,501.222351 352.016235,501.014435 349.057037,501.007233 
	C346.646820,501.001373 343.976257,500.919739 341.879669,501.876495 
	C337.774261,503.749969 334.065582,506.475861 330.027405,508.522858 
	C328.686737,509.202454 326.836884,508.856201 325.224884,509.026794 
	C322.666534,509.297516 320.044281,509.342010 317.574860,509.973877 
	C314.853638,510.670105 312.284943,511.950256 309.629028,512.919189 
	C308.265991,513.416443 306.795990,513.652161 305.480560,514.242737 
	C299.922760,516.737671 295.281067,521.470459 288.503448,521.014282 
	C287.619019,520.954712 286.641815,521.641174 285.771606,522.102844 
	C279.342041,525.513733 272.969818,529.035461 266.493317,532.354065 
	C263.143829,534.070435 259.708710,536.386719 256.149231,536.727112 
	C251.933182,537.130310 248.992508,538.768555 246.158478,541.503357 
	C244.872650,542.744141 243.228943,543.644714 241.667786,544.564148 
	C236.249283,547.755188 230.709991,550.749634 225.379776,554.079895 
	C220.037750,557.417542 214.798920,560.939270 209.677124,564.606873 
	C197.172195,573.561584 184.559021,582.386414 172.403488,591.798279 
	C166.915588,596.047546 162.132004,601.323364 157.529419,606.572266 
	C150.162628,614.973694 143.049545,623.612549 136.149490,632.402405 
	C132.198349,637.435730 127.811020,642.544556 125.516396,648.366760 
	C121.660118,658.151367 112.503220,665.159729 111.419159,676.237305 
	C111.390839,676.526733 110.985130,676.760864 110.881798,677.063904 
	C107.687141,686.432312 99.322639,693.945618 100.856720,705.039856 
	C100.976639,705.907166 100.243591,706.873840 99.983055,707.815430 
	C98.952637,711.539612 97.985619,715.281494 96.933853,718.999512 
	C95.052757,725.649353 91.688545,731.969604 92.507751,739.223938 
	C92.545349,739.556824 91.761276,739.914124 91.591202,740.350281 
	C90.671242,742.709717 89.080795,745.092896 89.065643,747.476440 
	C88.893005,774.638916 88.632164,801.809509 89.167290,828.962769 
	C89.334335,837.439087 91.824417,845.870117 93.266899,854.319153 
	C93.319923,854.629639 93.461838,855.015198 93.694435,855.191589 
	C98.449852,858.799133 96.565887,863.908691 96.767868,868.554138 
	C96.831978,870.028687 96.738091,871.625977 97.268105,872.945496 
	C100.525864,881.056274 103.548141,889.296936 107.393921,897.128418 
	C113.734695,910.040527 118.972214,923.548523 128.101776,935.004333 
	C134.957703,943.607239 140.470642,953.391113 147.968048,961.341797 
	C155.926086,969.781006 165.460953,976.748901 174.440598,984.198608 
	C176.795761,986.152527 179.565094,987.662109 182.288681,989.102600 
	C185.415680,990.756287 189.620514,991.308167 191.741165,993.744995 
	C197.120880,999.926758 204.294464,1002.525940 211.322708,1005.704956 
	C221.904221,1010.491211 232.118973,1016.240906 242.998764,1020.172058 
	C253.723190,1024.047119 265.082306,1026.164429 276.160522,1029.062134 
	C279.419678,1029.914673 282.689240,1030.735107 285.920746,1031.683716 
	C290.470917,1033.019409 294.905487,1035.074951 299.542297,1035.713745 
	C306.590118,1036.684814 313.768890,1036.996094 320.892334,1036.999878 
	C324.225739,1037.001587 327.687714,1035.087524 329.268433,1039.918213 
	C329.410645,1040.352783 331.091949,1040.427124 332.058533,1040.427246 
	C360.219055,1040.432861 388.379669,1040.427734 416.539948,1040.332031 
	C418.048065,1040.326904 419.572479,1039.573120 421.055389,1039.068359 
	C423.048859,1038.389771 425.106140,1036.793701 426.968445,1037.013184 
	C439.671051,1038.510620 451.282745,1032.601929 463.631439,1031.920044 
	C464.057098,1031.896484 464.425934,1031.328857 464.875916,1031.181396 
	C467.381256,1030.360840 469.862030,1029.403442 472.427307,1028.838867 
	C481.751221,1026.787231 491.305389,1025.521362 500.390228,1022.719055 
	C508.984192,1020.068176 517.101746,1015.868896 525.419189,1012.327881 
	C527.970276,1011.241821 530.404419,1009.799683 533.038147,1009.003296 
	C543.691162,1005.781982 553.756470,1001.474365 562.340698,994.186279 
	C562.945068,993.673218 563.648132,993.211182 564.383301,992.927551 
	C569.638000,990.900024 575.280334,989.565125 580.103333,986.797119 
	C589.559265,981.370117 598.583801,975.187012 607.747070,969.255371 
	C618.539490,962.269287 629.426453,955.416748 640.017151,948.135010 
	C649.248779,941.787537 658.161560,934.972046 667.147827,928.272888 
	C674.168274,923.039246 681.082214,917.662781 688.066711,912.380432 
	C688.236938,912.251709 688.680054,912.483765 689.221130,912.593018 
	C689.221130,946.975952 689.221130,981.398010 689.221130,1015.970215 
	C735.956116,1015.970215 782.333923,1015.970215 829.748169,1015.970215 
	C828.943542,1010.755493 828.428284,1006.057983 827.433411,1001.464294 
	C826.811707,998.593872 824.683289,995.904114 824.596863,993.091309 
	C824.356689,985.276611 824.780701,977.438232 825.069397,969.613831 
	C825.120911,968.219971 825.699463,966.819519 826.179199,965.473572 
	C826.916565,963.404968 828.441528,961.393677 828.481079,959.335999 
	C828.739990,945.842346 828.729248,932.342651 828.691956,918.845215 
	C828.687073,917.080933 828.595276,914.323303 827.567017,913.736084 
	C824.061218,911.734009 824.931152,908.695557 824.879028,905.852722 
	C824.805664,901.855530 824.952942,897.854919 824.953125,893.855774 
	C824.958679,727.694397 824.959167,561.533081 824.957031,395.371735 
	C824.956909,385.538849 825.002563,375.704803 824.843933,365.874237 
	C824.817383,364.229523 824.256836,361.552795 823.240723,361.157379 
	C820.030334,359.907898 820.248779,357.627228 820.289124,355.084076 
	C820.492859,342.255066 820.732910,329.425568 820.772583,316.595673 
	C820.782593,313.364075 822.019714,309.331970 817.109131,307.977631 
	C816.671997,307.857056 816.278687,306.547302 816.334229,305.826019 
	C817.095459,295.948883 817.455933,286.384674 813.340637,276.722443 
	C810.538940,270.144531 809.227173,262.700348 807.595703,255.570450 
	C806.475464,250.674591 805.105042,245.746109 804.405151,240.649155 
	C804.185120,239.046631 802.924255,237.395660 801.735352,236.154144 
	C798.453430,232.726898 795.639404,229.494308 796.791443,223.997330 
	C797.258423,221.769455 795.603027,218.963501 794.553650,216.578949 
	C792.393555,211.670334 789.991272,206.868301 787.518677,201.664703 
	C789.385132,201.298141 790.182861,201.008514 790.982422,201.003525 
	C831.469177,200.750641 871.955933,200.510681 912.443115,200.347046 
	C913.634827,200.342224 915.657532,200.917480 915.881409,201.652313 
	C916.897156,204.985977 919.282898,204.622543 921.846130,204.621826 
	C1000.507874,204.599716 1079.169678,204.621857 1157.831421,204.608170 
	C1160.084839,204.607773 1162.338257,204.292557 1164.505981,204.130524 
	C1164.505981,166.903061 1164.528687,130.259827 1164.487793,93.616692 
	C1164.479126,85.826584 1164.372559,85.883621 1156.221680,85.883148 
	C1063.567505,85.877777 970.913391,85.863579 878.259399,85.750717 
	C876.696350,85.748817 875.098938,84.561371 873.582336,83.798363 
	C871.883911,82.943886 870.291504,81.206161 868.597107,81.132172 
	C861.111694,80.805328 853.606201,80.915802 846.107971,80.909309 
	C777.281128,80.849693 708.454346,80.803192 639.627502,80.722351 
	C637.661621,80.720047 634.460754,81.046593 633.940125,80.082886 
	C631.425720,75.428612 627.479248,77.209175 623.861389,76.948586 
	C619.652466,76.645416 615.308228,78.295898 611.397949,74.051033 
	C609.919006,72.445557 603.504517,72.849365 601.698608,74.673065 
	C598.943909,77.455009 596.395264,77.446510 593.328003,77.419243 
	C581.169922,77.311165 569.012024,77.129021 556.854065,77.124664 
	C555.572815,77.124207 554.269958,78.068703 553.014648,78.655113 
	C551.134094,79.533653 549.289612,81.272957 547.424927,81.279556 
	C530.596008,81.339104 513.766296,81.044128 496.936340,80.995735 
	C493.505005,80.985863 489.409149,79.804214 487.670593,84.627892 
	C487.486511,85.138618 486.027466,85.428650 485.169098,85.409401 
	C483.179596,85.364769 481.177368,84.795311 479.213287,84.927757 
	C474.504547,85.245293 469.099762,84.585716 465.339569,86.721420 
	C462.231201,88.486908 459.882629,89.428543 456.456940,89.114792 
	C454.121033,88.900864 450.845520,88.868958 449.473511,90.240044 
	C446.310791,93.400627 443.154053,93.402367 439.099091,93.121071 
	C434.474060,92.800232 429.158966,92.747162 425.274780,94.760124 
	C422.593536,96.149666 420.415924,97.618103 417.422363,97.212151 
	C413.554932,96.687691 409.799164,95.954353 407.419159,100.402153 
	C407.060089,101.073257 404.977295,101.390900 403.963531,101.054115 
	C394.627197,97.952522 387.209778,106.144455 378.279938,105.346977 
	C377.732086,105.298042 377.175293,106.663490 376.461761,106.915627 
	C374.032379,107.774109 371.533142,109.009064 369.056366,109.018677 
	C365.721039,109.031631 362.791870,108.448669 359.916412,111.320900 
	C358.419281,112.816391 355.183289,112.602821 352.718506,113.089279 
	C350.087067,113.608643 346.592346,113.168320 344.992889,114.716095 
	C342.478729,117.148994 340.023804,117.809875 337.067749,117.169571 
	C329.748108,115.584068 324.713165,123.130531 317.526154,121.897408 
	C317.345581,121.866417 317.120026,122.481186 316.842590,122.571831 
	C314.227814,123.426071 311.627441,124.353279 308.962494,125.016945 
	C306.355072,125.666306 303.621704,125.841644 301.049316,126.588943 
	C299.261261,127.108383 297.476746,128.014313 295.996796,129.147476 
	C292.025146,132.188522 287.854218,134.256470 282.660919,133.328949 
	C282.328369,133.269562 281.918457,133.974030 281.475677,134.145950 
	C278.993042,135.109970 276.501068,136.053436 273.987885,136.934204 
	C272.617004,137.414658 271.075714,137.530548 269.823273,138.204681 
	C266.061371,140.229568 262.564240,142.823013 258.663574,144.493546 
	C254.055099,146.467163 249.099274,147.614838 244.366638,149.321915 
	C242.858551,149.865891 241.542648,150.997543 240.209213,151.958054 
	C238.190292,153.412338 236.276505,155.014053 234.241745,156.444595 
	C226.968231,161.558197 219.348450,166.236237 212.441971,171.801682 
	C201.823547,180.358337 193.899536,191.417252 186.021622,202.426361 
	C183.688446,205.686920 184.452316,208.875198 186.364044,212.185410 
	C189.903381,218.313965 193.448669,224.467361 196.481247,230.852737 
	C199.786545,237.812347 200.704865,238.599930 207.192398,235.492569 
	C216.163086,231.195831 224.941040,226.498489 233.876862,222.126633 
	C240.827316,218.726135 247.763458,215.232803 254.949677,212.398651 
	C260.330811,210.276398 266.171021,209.351227 271.681274,207.516144 
	C282.507172,203.910797 293.181122,199.841614 304.044800,196.360199 
	C310.453033,194.306580 317.136169,193.127579 323.638947,191.347916 
	C332.325958,188.970490 340.957458,186.390350 349.614166,183.901917 
	C350.557190,183.630844 351.510529,183.395721 352.456604,183.134888 
	C359.530029,181.184601 366.530060,178.879761 373.700317,177.398621 
	C378.857758,176.333252 384.245087,176.397491 389.522522,175.882370 
	C390.603821,175.776840 391.681122,175.413345 392.709839,175.032532 
	C394.681183,174.302826 396.603485,172.830032 398.568573,172.790924 
	C413.885284,172.485947 429.207886,172.488052 444.526764,172.264359 
	C445.944824,172.243652 448.462494,171.484634 448.571075,170.777115 
	C449.086029,167.420715 451.429535,168.061615 453.451477,168.062592 
	C473.114502,168.072098 492.778107,168.061569 512.440002,168.233444 
	C515.634399,168.261368 520.082458,165.823486 521.348877,171.596588 
	C521.434998,171.989258 523.132690,172.233032 524.070068,172.203339 
	C536.013000,171.824951 547.662903,173.666733 559.195374,176.591705 
	C562.061584,177.318680 565.100586,177.399261 567.933655,178.216003 
	C579.627258,181.587036 591.284973,185.085175 602.923828,188.641373 
	C605.137329,189.317703 607.225708,190.426193 609.336365,191.411163 
	C612.842773,193.047455 616.213806,195.809875 619.834717,196.172607 
	C625.557617,196.745926 626.971191,200.707260 628.992371,204.622223 
	C631.112244,208.728333 632.682678,213.301895 635.553406,216.801498 
	C643.605164,226.617081 654.006226,234.322403 660.475952,245.684921 
	C662.736023,249.654251 666.191650,252.441086 664.693542,257.807373 
	C664.180786,259.644073 665.799683,262.198547 666.740479,264.292206 
	C668.562500,268.347198 671.447998,272.125885 672.348389,276.348389 
	C673.878052,283.522278 678.581482,289.973846 677.344604,297.779633 
	C677.255005,298.344543 677.593201,299.240356 678.039368,299.585266 
	C681.498474,302.259338 680.911987,305.894958 680.798340,309.584473 
	C680.624146,315.235199 680.660706,320.904053 680.924500,326.550385 
	C681.018860,328.569000 681.971741,330.565643 682.644714,332.534027 
	C683.346802,334.587433 684.687439,336.554321 684.853943,338.630798 
	C685.172058,342.596924 684.727173,346.618256 684.860107,350.608002 
	C684.918945,352.372223 685.037537,354.996063 686.125061,355.707916 
	C689.851318,358.146942 689.230408,361.577271 689.197449,365.001892 
	C689.149414,369.997467 688.950073,374.998810 689.140686,379.985291 
	C689.203247,381.619781 690.215271,383.243530 690.908691,384.821411 
	C691.626038,386.453888 693.175537,388.023071 693.179077,389.622559 
	C693.265625,428.620056 693.174316,467.617859 693.157043,506.615631 
	C693.141602,541.280823 693.200439,575.946045 693.128723,610.611023 
	C693.124512,612.623962 692.385681,614.683289 691.731018,616.634583 
	C690.947632,618.969543 689.070312,621.209778 689.065735,623.493835 
	C688.955688,678.157654 689.070374,732.821838 688.947937,787.485596 
	C688.942871,789.766541 687.568420,792.551147 685.937988,794.236206 
	C677.716797,802.732788 668.890930,810.656738 660.856567,819.318909 
	C648.477661,832.664978 634.616821,844.227905 620.072388,855.054260 
	C619.274292,855.648315 618.432129,856.184570 617.598877,856.729980 
	C603.643921,865.863464 589.692322,875.002014 575.717163,884.104553 
	C574.931641,884.616272 573.810852,885.308655 573.083069,885.098083 
	C569.098572,883.944946 566.156067,885.327820 563.156738,887.950256 
	C559.624023,891.038940 555.689331,893.692261 551.775269,896.304077 
	C550.703979,897.018921 548.962646,897.395447 547.732178,897.094727 
	C541.189514,895.496216 536.655273,898.199097 532.624817,903.076660 
	C531.520203,904.413269 528.754028,905.604248 527.237671,905.167969 
	C519.216736,902.860535 513.469666,910.692871 505.846832,909.594116 
	C505.638977,909.564148 505.399536,910.125244 505.111572,910.221558 
	C502.420990,911.120789 499.752716,912.124573 497.005524,912.805420 
	C494.522949,913.420654 491.837677,913.337463 489.438263,914.145508 
	C483.206879,916.244263 477.184662,919.022644 470.873566,920.801025 
	C467.810394,921.664062 464.282715,920.776672 460.973785,920.903259 
	C458.532379,920.996643 454.903107,920.562317 453.905884,921.914246 
	C451.357300,925.369446 448.207214,924.766907 444.996887,924.807251 
	C439.831848,924.872253 434.665466,924.825500 428.499695,924.832214 
z"/>
<path fill="#FEFEFE" opacity="1.000000" stroke="none" 
	d="
M428.999664,924.829102 
	C434.665466,924.825500 439.831848,924.872253 444.996887,924.807251 
	C448.207214,924.766907 451.357300,925.369446 453.905884,921.914246 
	C454.903107,920.562317 458.532379,920.996643 460.973785,920.903259 
	C464.282715,920.776672 467.810394,921.664062 470.873566,920.801025 
	C477.184662,919.022644 483.206879,916.244263 489.438263,914.145508 
	C491.837677,913.337463 494.522949,913.420654 497.005524,912.805420 
	C499.752716,912.124573 502.420990,911.120789 505.111572,910.221558 
	C505.399536,910.125244 505.638977,909.564148 505.846832,909.594116 
	C513.469666,910.692871 519.216736,902.860535 527.237671,905.167969 
	C528.754028,905.604248 531.520203,904.413269 532.624817,903.076660 
	C536.655273,898.199097 541.189514,895.496216 547.732178,897.094727 
	C548.962646,897.395447 550.703979,897.018921 551.775269,896.304077 
	C555.689331,893.692261 559.624023,891.038940 563.156738,887.950256 
	C566.156067,885.327820 569.098572,883.944946 573.083069,885.098083 
	C573.810852,885.308655 574.931641,884.616272 575.717163,884.104553 
	C589.692322,875.002014 603.643921,865.863464 617.598877,856.729980 
	C618.432129,856.184570 619.274292,855.648315 620.072388,855.054260 
	C634.616821,844.227905 648.477661,832.664978 660.856567,819.318909 
	C668.890930,810.656738 677.716797,802.732788 685.937988,794.236206 
	C687.568420,792.551147 688.942871,789.766541 688.947937,787.485596 
	C689.070374,732.821838 688.955688,678.157654 689.065735,623.493835 
	C689.070312,621.209778 690.947632,618.969543 691.731018,616.634583 
	C692.385681,614.683289 693.124512,612.623962 693.128723,610.611023 
	C693.200439,575.946045 693.141602,541.280823 693.157043,506.615631 
	C693.174316,467.617859 693.265625,428.620056 693.179077,389.622559 
	C693.175537,388.023071 691.626038,386.453888 690.908691,384.821411 
	C690.215271,383.243530 689.203247,381.619781 689.140686,379.985291 
	C688.950073,374.998810 689.149414,369.997467 689.197449,365.001892 
	C689.230408,361.577271 689.851318,358.146942 686.125061,355.707916 
	C685.037537,354.996063 684.918945,352.372223 684.860107,350.608002 
	C684.727173,346.618256 685.172058,342.596924 684.853943,338.630798 
	C684.687439,336.554321 683.346802,334.587433 682.644714,332.534027 
	C681.971741,330.565643 681.018860,328.569000 680.924500,326.550385 
	C680.660706,320.904053 680.624146,315.235199 680.798340,309.584473 
	C680.911987,305.894958 681.498474,302.259338 678.039368,299.585266 
	C677.593201,299.240356 677.255005,298.344543 677.344604,297.779633 
	C678.581482,289.973846 673.878052,283.522278 672.348389,276.348389 
	C671.447998,272.125885 668.562500,268.347198 666.740479,264.292206 
	C665.799683,262.198547 664.180786,259.644073 664.693542,257.807373 
	C666.191650,252.441086 662.736023,249.654251 660.475952,245.684921 
	C654.006226,234.322403 643.605164,226.617081 635.553406,216.801498 
	C632.682678,213.301895 631.112244,208.728333 628.992371,204.622223 
	C626.971191,200.707260 625.557617,196.745926 619.834717,196.172607 
	C616.213806,195.809875 612.842773,193.047455 609.336365,191.411163 
	C607.225708,190.426193 605.137329,189.317703 602.923828,188.641373 
	C591.284973,185.085175 579.627258,181.587036 567.933655,178.216003 
	C565.100586,177.399261 562.061584,177.318680 559.195374,176.591705 
	C547.662903,173.666733 536.013000,171.824951 524.070068,172.203339 
	C523.132690,172.233032 521.434998,171.989258 521.348877,171.596588 
	C520.082458,165.823486 515.634399,168.261368 512.440002,168.233444 
	C492.778107,168.061569 473.114502,168.072098 453.451477,168.062592 
	C451.429535,168.061615 449.086029,167.420715 448.571075,170.777115 
	C448.462494,171.484634 445.944824,172.243652 444.526764,172.264359 
	C429.207886,172.488052 413.885284,172.485947 398.568573,172.790924 
	C396.603485,172.830032 394.681183,174.302826 392.709839,175.032532 
	C391.681122,175.413345 390.603821,175.776840 389.522522,175.882370 
	C384.245087,176.397491 378.857758,176.333252 373.700317,177.398621 
	C366.530060,178.879761 359.530029,181.184601 352.456604,183.134888 
	C351.510529,183.395721 350.557190,183.630844 349.614166,183.901917 
	C340.957458,186.390350 332.325958,188.970490 323.638947,191.347916 
	C317.136169,193.127579 310.453033,194.306580 304.044800,196.360199 
	C293.181122,199.841614 282.507172,203.910797 271.681274,207.516144 
	C266.171021,209.351227 260.330811,210.276398 254.949677,212.398651 
	C247.763458,215.232803 240.827316,218.726135 233.876862,222.126633 
	C224.941040,226.498489 216.163086,231.195831 207.192398,235.492569 
	C200.704865,238.599930 199.786545,237.812347 196.481247,230.852737 
	C193.448669,224.467361 189.903381,218.313965 186.364044,212.185410 
	C184.452316,208.875198 183.688446,205.686920 186.021622,202.426361 
	C193.899536,191.417252 201.823547,180.358337 212.441971,171.801682 
	C219.348450,166.236237 226.968231,161.558197 234.241745,156.444595 
	C236.276505,155.014053 238.190292,153.412338 240.209213,151.958054 
	C241.542648,150.997543 242.858551,149.865891 244.366638,149.321915 
	C249.099274,147.614838 254.055099,146.467163 258.663574,144.493546 
	C262.564240,142.823013 266.061371,140.229568 269.823273,138.204681 
	C271.075714,137.530548 272.617004,137.414658 273.987885,136.934204 
	C276.501068,136.053436 278.993042,135.109970 281.475677,134.145950 
	C281.918457,133.974030 282.328369,133.269562 282.660919,133.328949 
	C287.854218,134.256470 292.025146,132.188522 295.996796,129.147476 
	C297.476746,128.014313 299.261261,127.108383 301.049316,126.588943 
	C303.621704,125.841644 306.355072,125.666306 308.962494,125.016945 
	C311.627441,124.353279 314.227814,123.426071 316.842590,122.571831 
	C317.120026,122.481186 317.345581,121.866417 317.526154,121.897408 
	C324.713165,123.130531 329.748108,115.584068 337.067749,117.169571 
	C340.023804,117.809875 342.478729,117.148994 344.992889,114.716095 
	C346.592346,113.168320 350.087067,113.608643 352.718506,113.089279 
	C355.183289,112.602821 358.419281,112.816391 359.916412,111.320900 
	C362.791870,108.448669 365.721039,109.031631 369.056366,109.018677 
	C371.533142,109.009064 374.032379,107.774109 376.461761,106.915627 
	C377.175293,106.663490 377.732086,105.298042 378.279938,105.346977 
	C387.209778,106.144455 394.627197,97.952522 403.963531,101.054115 
	C404.977295,101.390900 407.060089,101.073257 407.419159,100.402153 
	C409.799164,95.954353 413.554932,96.687691 417.422363,97.212151 
	C420.415924,97.618103 422.593536,96.149666 425.274780,94.760124 
	C429.158966,92.747162 434.474060,92.800232 439.099091,93.121071 
	C443.154053,93.402367 446.310791,93.400627 449.473511,90.240044 
	C450.845520,88.868958 454.121033,88.900864 456.456940,89.114792 
	C459.882629,89.428543 462.231201,88.486908 465.339569,86.721420 
	C469.099762,84.585716 474.504547,85.245293 479.213287,84.927757 
	C481.177368,84.795311 483.179596,85.364769 485.169098,85.409401 
	C486.027466,85.428650 487.486511,85.138618 487.670593,84.627892 
	C489.409149,79.804214 493.505005,80.985863 496.936340,80.995735 
	C513.766296,81.044128 530.596008,81.339104 547.424927,81.279556 
	C549.289612,81.272957 551.134094,79.533653 553.014648,78.655113 
	C554.269958,78.068703 555.572815,77.124207 556.854065,77.124664 
	C569.012024,77.129021 581.169922,77.311165 593.328003,77.419243 
	C596.395264,77.446510 598.943909,77.455009 601.698608,74.673065 
	C603.504517,72.849365 609.919006,72.445557 611.397949,74.051033 
	C615.308228,78.295898 619.652466,76.645416 623.861389,76.948586 
	C627.479248,77.209175 631.425720,75.428612 633.940125,80.082886 
	C634.460754,81.046593 637.661621,80.720047 639.627502,80.722351 
	C708.454346,80.803192 777.281128,80.849693 846.107971,80.909309 
	C853.606201,80.915802 861.111694,80.805328 868.597107,81.132172 
	C870.291504,81.206161 871.883911,82.943886 873.582336,83.798363 
	C875.098938,84.561371 876.696350,85.748817 878.259399,85.750717 
	C970.913391,85.863579 1063.567505,85.877777 1156.221680,85.883148 
	C1164.372559,85.883621 1164.479126,85.826584 1164.487793,93.616692 
	C1164.528687,130.259827 1164.505981,166.903061 1164.505981,204.130524 
	C1162.338257,204.292557 1160.084839,204.607773 1157.831421,204.608170 
	C1079.169678,204.621857 1000.507874,204.599716 921.846130,204.621826 
	C919.282898,204.622543 916.897156,204.985977 915.881409,201.652313 
	C915.657532,200.917480 913.634827,200.342224 912.443115,200.347046 
	C871.955933,200.510681 831.469177,200.750641 790.982422,201.003525 
	C790.182861,201.008514 789.385132,201.298141 787.518677,201.664703 
	C789.991272,206.868301 792.393555,211.670334 794.553650,216.578949 
	C795.603027,218.963501 797.258423,221.769455 796.791443,223.997330 
	C795.639404,229.494308 798.453430,232.726898 801.735352,236.154144 
	C802.924255,237.395660 804.185120,239.046631 804.405151,240.649155 
	C805.105042,245.746109 806.475464,250.674591 807.595703,255.570450 
	C809.227173,262.700348 810.538940,270.144531 813.340637,276.722443 
	C817.455933,286.384674 817.095459,295.948883 816.334229,305.826019 
	C816.278687,306.547302 816.671997,307.857056 817.109131,307.977631 
	C822.019714,309.331970 820.782593,313.364075 820.772583,316.595673 
	C820.732910,329.425568 820.492859,342.255066 820.289124,355.084076 
	C820.248779,357.627228 820.030334,359.907898 823.240723,361.157379 
	C824.256836,361.552795 824.817383,364.229523 824.843933,365.874237 
	C825.002563,375.704803 824.956909,385.538849 824.957031,395.371735 
	C824.959167,561.533081 824.958679,727.694397 824.953125,893.855774 
	C824.952942,897.854919 824.805664,901.855530 824.879028,905.852722 
	C824.931152,908.695557 824.061218,911.734009 827.567017,913.736084 
	C828.595276,914.323303 828.687073,917.080933 828.691956,918.845215 
	C828.729248,932.342651 828.739990,945.842346 828.481079,959.335999 
	C828.441528,961.393677 826.916565,963.404968 826.179199,965.473572 
	C825.699463,966.819519 825.120911,968.219971 825.069397,969.613831 
	C824.780701,977.438232 824.356689,985.276611 824.596863,993.091309 
	C824.683289,995.904114 826.811707,998.593872 827.433411,1001.464294 
	C828.428284,1006.057983 828.943542,1010.755493 829.748169,1015.970215 
	C782.333923,1015.970215 735.956116,1015.970215 689.221130,1015.970215 
	C689.221130,981.398010 689.221130,946.975952 689.221130,912.593018 
	C688.680054,912.483765 688.236938,912.251709 688.066711,912.380432 
	C681.082214,917.662781 674.168274,923.039246 667.147827,928.272888 
	C658.161560,934.972046 649.248779,941.787537 640.017151,948.135010 
	C629.426453,955.416748 618.539490,962.269287 607.747070,969.255371 
	C598.583801,975.187012 589.559265,981.370117 580.103333,986.797119 
	C575.280334,989.565125 569.638000,990.900024 564.383301,992.927551 
	C563.648132,993.211182 562.945068,993.673218 562.340698,994.186279 
	C553.756470,1001.474365 543.691162,1005.781982 533.038147,1009.003296 
	C530.404419,1009.799683 527.970276,1011.241821 525.419189,1012.327881 
	C517.101746,1015.868896 508.984192,1020.068176 500.390228,1022.719055 
	C491.305389,1025.521362 481.751221,1026.787231 472.427307,1028.838867 
	C469.862030,1029.403442 467.381256,1030.360840 464.875916,1031.181396 
	C464.425934,1031.328857 464.057098,1031.896484 463.631439,1031.920044 
	C451.282745,1032.601929 439.671051,1038.510620 426.968445,1037.013184 
	C425.106140,1036.793701 423.048859,1038.389771 421.055389,1039.068359 
	C419.572479,1039.573120 418.048065,1040.326904 416.539948,1040.332031 
	C388.379669,1040.427734 360.219055,1040.432861 332.058533,1040.427246 
	C331.091949,1040.427124 329.410645,1040.352783 329.268433,1039.918213 
	C327.687714,1035.087524 324.225739,1037.001587 320.892334,1036.999878 
	C313.768890,1036.996094 306.590118,1036.684814 299.542297,1035.713745 
	C294.905487,1035.074951 290.470917,1033.019409 285.920746,1031.683716 
	C282.689240,1030.735107 279.419678,1029.914673 276.160522,1029.062134 
	C265.082306,1026.164429 253.723190,1024.047119 242.998764,1020.172058 
	C232.118973,1016.240906 221.904221,1010.491211 211.322708,1005.704956 
	C204.294464,1002.525940 197.120880,999.926758 191.741165,993.744995 
	C189.620514,991.308167 185.415680,990.756287 182.288681,989.102600 
	C179.565094,987.662109 176.795761,986.152527 174.440598,984.198608 
	C165.460953,976.748901 155.926086,969.781006 147.968048,961.341797 
	C140.470642,953.391113 134.957703,943.607239 128.101776,935.004333 
	C118.972214,923.548523 113.734695,910.040527 107.393921,897.128418 
	C103.548141,889.296936 100.525864,881.056274 97.268105,872.945496 
	C96.738091,871.625977 96.831978,870.028687 96.767868,868.554138 
	C96.565887,863.908691 98.449852,858.799133 93.694435,855.191589 
	C93.461838,855.015198 93.319923,854.629639 93.266899,854.319153 
	C91.824417,845.870117 89.334335,837.439087 89.167290,828.962769 
	C88.632164,801.809509 88.893005,774.638916 89.065643,747.476440 
	C89.080795,745.092896 90.671242,742.709717 91.591202,740.350281 
	C91.761276,739.914124 92.545349,739.556824 92.507751,739.223938 
	C91.688545,731.969604 95.052757,725.649353 96.933853,718.999512 
	C97.985619,715.281494 98.952637,711.539612 99.983055,707.815430 
	C100.243591,706.873840 100.976639,705.907166 100.856720,705.039856 
	C99.322639,693.945618 107.687141,686.432312 110.881798,677.063904 
	C110.985130,676.760864 111.390839,676.526733 111.419159,676.237305 
	C112.503220,665.159729 121.660118,658.151367 125.516396,648.366760 
	C127.811020,642.544556 132.198349,637.435730 136.149490,632.402405 
	C143.049545,623.612549 150.162628,614.973694 157.529419,606.572266 
	C162.132004,601.323364 166.915588,596.047546 172.403488,591.798279 
	C184.559021,582.386414 197.172195,573.561584 209.677124,564.606873 
	C214.798920,560.939270 220.037750,557.417542 225.379776,554.079895 
	C230.709991,550.749634 236.249283,547.755188 241.667786,544.564148 
	C243.228943,543.644714 244.872650,542.744141 246.158478,541.503357 
	C248.992508,538.768555 251.933182,537.130310 256.149231,536.727112 
	C259.708710,536.386719 263.143829,534.070435 266.493317,532.354065 
	C272.969818,529.035461 279.342041,525.513733 285.771606,522.102844 
	C286.641815,521.641174 287.619019,520.954712 288.503448,521.014282 
	C295.281067,521.470459 299.922760,516.737671 305.480560,514.242737 
	C306.795990,513.652161 308.265991,513.416443 309.629028,512.919189 
	C312.284943,511.950256 314.853638,510.670105 317.574860,509.973877 
	C320.044281,509.342010 322.666534,509.297516 325.224884,509.026794 
	C326.836884,508.856201 328.686737,509.202454 330.027405,508.522858 
	C334.065582,506.475861 337.774261,503.749969 341.879669,501.876495 
	C343.976257,500.919739 346.646820,501.001373 349.057037,501.007233 
	C352.016235,501.014435 354.539429,501.222351 357.102875,498.645538 
	C358.666992,497.073212 362.184784,497.361816 364.850006,496.996674 
	C366.592621,496.757965 368.645081,497.389282 370.096069,496.681885 
	C374.026001,494.765869 377.477936,491.614319 381.553558,490.322174 
	C385.824341,488.968140 390.594116,488.927643 395.156525,488.833801 
	C399.009674,488.754547 402.157990,489.190399 405.951141,486.214294 
	C408.906372,483.895599 414.814819,485.280029 419.414520,485.137482 
	C423.094238,485.023468 427.453796,487.411499 429.564301,481.948456 
	C429.787048,481.371796 431.643188,481.222900 432.743011,481.218048 
	C460.903229,481.093994 489.063629,481.001984 517.224060,480.975952 
	C518.430603,480.974823 520.519165,481.407898 520.703491,482.060455 
	C522.018616,486.717316 525.381714,485.579437 528.700256,485.508575 
	C541.679688,485.231293 554.664551,485.056793 567.645081,485.152557 
	C569.557007,485.166687 571.410950,486.962219 573.376404,487.711487 
	C574.939636,488.307465 576.612061,488.767822 578.271179,488.931580 
	C582.323792,489.331665 587.019287,487.259277 589.776184,492.365387 
	C590.076233,492.921112 591.886597,492.625122 592.986206,492.791443 
	C598.947266,493.692963 605.399170,491.195099 610.816772,496.471619 
	C612.433838,498.046539 616.827148,496.348846 619.448547,497.398712 
	C625.762146,499.927277 632.501282,500.144714 638.834595,501.885620 
	C642.383606,502.861206 645.444397,505.331848 649.676086,504.994080 
	C650.815613,504.903137 652.189209,507.744110 653.455322,509.239258 
	C652.192810,510.166260 651.046326,511.630646 649.648804,511.932404 
	C641.068848,513.785095 632.209045,514.650024 623.864807,517.216736 
	C610.287903,521.392944 597.052856,526.673462 583.637390,531.384949 
	C578.829956,533.073364 573.855774,534.292175 569.066589,536.026062 
	C559.491821,539.492554 550.004333,543.199097 540.458252,546.745850 
	C531.232605,550.173584 521.944885,553.437134 512.753601,556.953491 
	C509.083130,558.357666 505.523285,560.105652 502.048431,561.951782 
	C498.219299,563.986145 494.604248,566.327881 489.940887,564.345398 
	C489.104706,563.989929 487.148804,564.377686 486.823914,565.002014 
	C483.484283,571.419128 476.572906,572.646423 471.087036,575.678040 
	C461.099731,581.197144 450.700623,585.987366 440.366150,590.854004 
	C436.256439,592.789368 431.923676,594.317444 427.581757,595.677551 
	C421.357697,597.627258 414.968048,599.056152 408.769348,601.076294 
	C403.262390,602.870972 397.934082,605.208069 392.498993,607.230652 
	C388.207489,608.827637 383.776672,610.086609 379.582764,611.900452 
	C374.280640,614.193604 369.213501,617.025879 363.935974,619.381348 
	C359.967010,621.152710 355.672241,622.231323 351.797974,624.169067 
	C345.804291,627.167053 340.100647,630.738708 334.173248,633.876770 
	C327.006470,637.670959 319.429718,640.785278 312.608398,645.106323 
	C307.498993,648.342957 303.792816,653.859009 298.604004,656.893066 
	C286.291199,664.092712 277.317535,674.807190 267.523224,684.666992 
	C265.604401,686.598633 265.113190,689.874329 263.409821,692.107788 
	C257.767242,699.506348 251.488922,706.449341 246.235825,714.103333 
	C243.641998,717.882690 242.807053,722.855591 241.091736,727.255493 
	C239.422134,731.538086 238.379364,736.335999 235.696640,739.872314 
	C233.277298,743.061462 233.509567,746.193481 232.884567,749.522949 
	C232.349014,752.375854 230.857712,755.040344 229.909622,757.829102 
	C229.497360,759.041809 229.185577,760.354858 229.170364,761.626343 
	C228.997025,776.117676 228.742355,790.611267 228.891052,805.100342 
	C228.920303,807.951965 230.598389,810.779541 231.468414,813.632690 
	C231.898804,815.044128 232.474472,816.475586 232.548386,817.920288 
	C232.885010,824.498291 232.947525,830.898804 236.565353,837.019409 
	C239.775284,842.449829 241.176483,848.917664 244.034286,854.596313 
	C247.363297,861.211365 252.026459,867.196533 254.973312,873.951172 
	C258.119751,881.163391 263.493439,886.293091 269.145203,890.961487 
	C275.815308,896.471069 283.170227,901.317017 290.749420,905.508301 
	C296.832123,908.872131 303.913116,910.397705 310.126404,913.570618 
	C313.991455,915.544434 318.905884,915.556030 321.734985,917.509399 
	C329.174408,922.646179 336.861450,920.380249 344.484436,920.871765 
	C345.472961,920.935486 346.984314,920.812744 347.350616,921.369995 
	C350.753754,926.546631 355.996094,924.700745 360.515747,924.736450 
	C383.175903,924.915894 405.838165,924.826904 428.999664,924.829102 
z"/>
</svg>